<svg xmlns="http://www.w3.org/2000/svg" width="1200" height="630" viewBox="0 0 1200 630" role="img" aria-labelledby="title description">
  <title id="title">Certification Study Library</title>
  <desc id="description">Study the objective. Understand the system.</desc>
  <defs>
    <linearGradient id="background" x1="0" y1="0" x2="1" y2="1">
      <stop offset="0" stop-color="#071a2f"/>
      <stop offset="1" stop-color="#123b55"/>
    </linearGradient>
    <linearGradient id="accent" x1="0" y1="0" x2="1" y2="1">
      <stop offset="0" stop-color="#54d2c5"/>
      <stop offset="1" stop-color="#78a7ff"/>
    </linearGradient>
  </defs>
  <rect width="1200" height="630" fill="url(#background)"/>
  <circle cx="1080" cy="90" r="250" fill="#54d2c5" opacity="0.08"/>
  <circle cx="1040" cy="610" r="330" fill="#78a7ff" opacity="0.08"/>
  <g transform="translate(82 82)">
    <rect width="82" height="82" rx="20" fill="url(#accent)"/>
    <path d="M23 23h36v9H32v18h27v9H23z" fill="#071a2f"/>
    <circle cx="57" cy="57" r="7" fill="#071a2f"/>
  </g>
  <text x="190" y="125" fill="#9fb6c7" font-family="Segoe UI, Arial, sans-serif" font-size="27" font-weight="600" letter-spacing="3">CERTIFICATION STUDY LIBRARY</text>
  <text x="82" y="285" fill="#f5fbff" font-family="Segoe UI, Arial, sans-serif" font-size="72" font-weight="750">Study the objective.</text>
  <text x="82" y="375" fill="url(#accent)" font-family="Segoe UI, Arial, sans-serif" font-size="72" font-weight="750">Understand the system.</text>
  <text x="84" y="465" fill="#c6d7e2" font-family="Segoe UI, Arial, sans-serif" font-size="28">Independent, source-driven certification guides</text>
  <g transform="translate(84 525)">
    <rect width="196" height="48" rx="24" fill="#54d2c5" opacity="0.13"/>
    <text x="98" y="32" text-anchor="middle" fill="#72e0d5" font-family="Segoe UI, Arial, sans-serif" font-size="20" font-weight="650">Blueprint first</text>
    <rect x="214" width="198" height="48" rx="24" fill="#78a7ff" opacity="0.13"/>
    <text x="313" y="32" text-anchor="middle" fill="#9bbaff" font-family="Segoe UI, Arial, sans-serif" font-size="20" font-weight="650">Public sources</text>
    <rect x="430" width="205" height="48" rx="24" fill="#ffffff" opacity="0.08"/>
    <text x="532" y="32" text-anchor="middle" fill="#d8e5ec" font-family="Segoe UI, Arial, sans-serif" font-size="20" font-weight="650">Hands-on depth</text>
  </g>
</svg>
